<?xml version="1.0" encoding="UTF-8"?><svg id="Ebene_3" xmlns="http://www.w3.org/2000/svg" viewBox="0 0 54.34 51.02"><defs><style>.cls-1{fill:#1d1d1b;}</style></defs><path class="cls-1" d="m46.22,36.13c-2.97-1.69-6.38-2.61-9.86-2.67-6.54-.12-13.25-.03-19.93.28-5.28.24-9.68,2.33-13.06,6.21C.77,42.93-.34,46.64.09,50.98v.04h54.23v-.05c.28-6.73-2.36-11.59-8.1-14.85ZM2.9,48.14c.29-4.54,3.73-8.72,8.57-10.42,2.87-1.01,5.88-1.52,8.96-1.52h.13c3.23.02,6.51.01,9.69,0,1.61,0,3.23,0,4.84,0,4.69,0,8.85,1.4,12.37,4.16,2.4,1.89,3.76,4.5,4.05,7.76H2.9Z"/><path class="cls-1" d="m27.08,29.24h.05c7.73-.03,13.85-6,14.23-13.9.19-4.04-1.19-7.85-3.89-10.75C34.81,1.75,31.18.08,27.51,0c-3.82-.08-7.6,1.48-10.37,4.29-2.75,2.78-4.25,6.52-4.13,10.26-.09,3.98,1.36,7.7,4.09,10.49,2.66,2.71,6.2,4.21,9.98,4.21Zm.1-26.32h.07c2.89.02,5.76,1.29,7.89,3.49,2.2,2.28,3.38,5.24,3.3,8.34-.08,3.2-1.27,6.13-3.34,8.25-2.07,2.11-4.89,3.29-7.94,3.31h-.08c-2.97,0-5.76-1.18-7.88-3.33-2.2-2.24-3.37-5.21-3.29-8.38h0c-.13-2.9,1.04-5.86,3.21-8.12,2.17-2.26,5.11-3.55,8.06-3.55Z"/></svg>