<svg width="24" height="24" viewBox="0 0 24 24" fill="none" xmlns="http://www.w3.org/2000/svg">
<path fill-rule="evenodd" clip-rule="evenodd" d="M6.21569 1.41176C5.73726 1.41176 5.27842 1.60182 4.94012 1.94012C4.60182 2.27842 4.41176 2.73726 4.41176 3.21569V21.9225L12.0799 16.4452C12.3253 16.2699 12.655 16.2699 12.9005 16.4452L20.5686 21.9225V3.21569C20.5686 2.73726 20.3786 2.27842 20.0403 1.94012C19.702 1.60182 19.2431 1.41176 18.7647 1.41176H6.21569ZM3.94185 0.941852C4.54491 0.338794 5.36283 0 6.21569 0H18.7647C19.6176 0 20.4355 0.338794 21.0385 0.941852C21.6416 1.54491 21.9804 2.36283 21.9804 3.21569V23.2941C21.9804 23.5585 21.8326 23.8008 21.5975 23.9218C21.3624 24.0428 21.0794 24.0222 20.8642 23.8685L12.4902 17.8871L4.11617 23.8685C3.901 24.0222 3.61799 24.0428 3.38288 23.9218C3.14777 23.8008 3 23.5585 3 23.2941V3.21569C3 2.36283 3.33879 1.54491 3.94185 0.941852Z" fill="black"/>
</svg>
