<svg width="24" height="24" viewBox="0 0 24 24" fill="none" xmlns="http://www.w3.org/2000/svg">
<path d="M13.0012 3.56086e-05H12.3858C10.6541 -0.00437302 8.94403 0.400645 7.39675 1.18219C5.54687 2.10672 3.98871 3.53005 2.89942 5.29144C1.81014 7.05284 1.23277 9.08268 1.23196 11.1537L1.23725 11.5245C1.28338 13.0057 1.62866 14.4634 2.25231 15.809L2.28581 15.8789L0.0367239 22.6273L0.0129796 22.7172C-0.0863895 23.2236 0.401281 23.6734 0.912429 23.503L7.65997 21.253L7.39676 21.1258C8.94411 21.9073 10.6541 22.3124 12.3876 22.3078C14.457 22.307 16.4869 21.7297 18.2483 20.6404C20.0096 19.5512 21.433 17.993 22.3589 16.1404C23.1392 14.5957 23.5442 12.8857 23.5398 11.1522V10.5386C23.3876 7.76489 22.233 5.18118 20.2958 3.24397C18.4361 1.38424 15.9805 0.245737 13.3668 0.0240782L13.0012 3.56086e-05ZM12.384 1.38472L12.975 1.38367H12.963C15.3582 1.51585 17.6206 2.52684 19.3167 4.22303C21.0129 5.91924 22.0239 8.18152 22.1561 10.5768L22.1551 11.154C22.159 12.6712 21.8049 14.1661 21.1217 15.5188C20.3094 17.144 19.0627 18.5087 17.52 19.4627C15.9773 20.4168 14.1994 20.9225 12.3855 20.9232C10.8686 20.9272 9.3737 20.5731 8.021 19.8899L7.91932 19.8483C7.78041 19.804 7.63005 19.8044 7.48996 19.851L1.78735 21.7515L3.68874 16.0498C3.74712 15.8747 3.73314 15.6835 3.64991 15.5187C2.96668 14.1661 2.61262 12.6712 2.61658 11.1558C2.61729 9.34031 3.12298 7.56245 4.07704 6.01971C5.0311 4.47697 6.39584 3.23033 8.01838 2.41942C9.37364 1.73487 10.8685 1.3808 12.384 1.38472Z" fill="black"/>
</svg>
