<svg width="24" height="24" viewBox="0 0 24 24" fill="none" xmlns="http://www.w3.org/2000/svg">
<path fill-rule="evenodd" clip-rule="evenodd" d="M14.8035 2.50644C15.6104 2.17209 16.4753 2 17.3488 2C18.2222 2 19.0871 2.17209 19.894 2.50644C20.701 2.8408 21.4341 3.33086 22.0516 3.94863C22.6693 4.56606 23.1592 5.29913 23.4936 6.10595C23.8279 6.91288 24 7.77778 24 8.65124C24 9.5247 23.8279 10.3896 23.4936 11.1965C23.1592 12.0034 22.6692 12.7365 22.0515 13.354C22.0514 13.354 22.0515 13.3539 22.0515 13.354L12.4988 22.9066C12.3665 23.039 12.1869 23.1134 11.9997 23.1134C11.8125 23.1134 11.633 23.039 11.5006 22.9066L1.94793 13.354C0.700693 12.1067 0 10.4151 0 8.65124C0 6.88738 0.700693 5.19575 1.94793 3.94851C3.19518 2.70127 4.8868 2.00058 6.65066 2.00058C8.41453 2.00058 10.1062 2.70127 11.3534 3.94851L11.9997 4.59483L12.6459 3.94863C13.2634 3.33086 13.9965 2.8408 14.8035 2.50644ZM17.3488 3.41176C16.6608 3.41176 15.9795 3.54732 15.3439 3.81068C14.7083 4.07404 14.1308 4.46006 13.6444 4.94666L12.4988 6.09223C12.2232 6.3679 11.7762 6.3679 11.5006 6.09223L10.3551 4.94678C9.37264 3.9643 8.04011 3.41234 6.65066 3.41234C5.26122 3.41234 3.92869 3.9643 2.9462 4.94678C1.96372 5.92926 1.41176 7.2618 1.41176 8.65124C1.41176 10.0407 1.96372 11.3732 2.9462 12.3557L11.9997 21.4092L21.0532 12.3557C21.5398 11.8693 21.926 11.2917 22.1893 10.6561C22.4527 10.0205 22.5882 9.33925 22.5882 8.65124C22.5882 7.96324 22.4527 7.28197 22.1893 6.64637C21.926 6.01076 21.5399 5.43328 21.0533 4.9469C20.567 4.46029 19.9892 4.07404 19.3536 3.81068C18.718 3.54732 18.0368 3.41176 17.3488 3.41176Z" fill="black"/>
</svg>
