<svg width="24" height="24" viewBox="0 0 24 24" fill="none" xmlns="http://www.w3.org/2000/svg">
<path fill-rule="evenodd" clip-rule="evenodd" d="M23.7932 0.206768C23.985 0.398512 24.0499 0.683146 23.9604 0.93909L16.0545 23.5273C15.9589 23.8005 15.7062 23.9876 15.417 23.9994C15.1278 24.0112 14.8607 23.8453 14.7432 23.5808L10.3358 13.6642L0.4192 9.25682C0.154719 9.13927 -0.0112077 8.87219 0.000590322 8.583C0.0123883 8.29382 0.19952 8.04114 0.472697 7.94552L23.0609 0.039649C23.3169 -0.0499312 23.6015 0.0150235 23.7932 0.206768ZM11.7125 13.2857L15.3102 21.3804L21.606 3.39226L11.7125 13.2857ZM20.6077 2.394L2.61958 8.68985L10.7143 12.2875L20.6077 2.394Z" fill="black"/>
</svg>
