<?xml version="1.0" encoding="UTF-8"?><svg id="Ebene_2" xmlns="http://www.w3.org/2000/svg" viewBox="0 0 59.23 51.02"><path d="m10.46,5.79c-.41-2.07-.78-3.96-1.15-5.79H0v2.58c.2.08.34.19.48.19,1.46.02,2.92.02,4.38.04,2.66.03,2.03-.35,2.54,2.22,1.09,5.39,1.87,10.85,2.96,16.24,1.26,6.24,2.55,12.45,2.1,18.87-.05.65,0,1.31,0,1.95h39.69v-2.82H15.4v-5.16c.86-.15,1.62-.32,2.39-.4,3.56-.34,7.12-.6,10.67-.97,4.52-.47,9.03-1.04,13.55-1.53,3.86-.43,7.73-.79,11.58-1.26.42-.05,1.03-.64,1.12-1.07,1.19-5.89,2.31-11.79,3.45-17.69.34-1.74.69-3.47,1.07-5.4H10.46Zm41.67,21.57c-12.31,1.27-24.63,2.53-37,3.81-1.38-7.48-2.76-14.93-4.15-22.46h44.81c-1.24,6.3-2.45,12.44-3.66,18.65Z"/><path d="m16.84,43.54c-2.06,0-3.74,1.68-3.74,3.74s1.68,3.74,3.74,3.74,3.74-1.68,3.74-3.74-1.68-3.74-3.74-3.74Zm0,5.2c-.8,0-1.45-.65-1.45-1.45s.65-1.45,1.45-1.45,1.45.65,1.45,1.45-.65,1.45-1.45,1.45Z"/><path d="m45.97,43.54c-2.06,0-3.74,1.68-3.74,3.74s1.68,3.74,3.74,3.74,3.74-1.68,3.74-3.74-1.68-3.74-3.74-3.74Zm0,5.2c-.8,0-1.45-.65-1.45-1.45s.65-1.45,1.45-1.45,1.45.65,1.45,1.45-.65,1.45-1.45,1.45Z"/></svg>