<svg id="Gruppe_672" data-name="Gruppe 672" xmlns="http://www.w3.org/2000/svg" xmlns:xlink="http://www.w3.org/1999/xlink" width="14.027" height="15" viewBox="0 0 14.027 15">
  <defs>
    <clipPath id="clip-path">
      <rect id="Rechteck_439" data-name="Rechteck 439" width="14.027" height="15" fill="#fff"/>
    </clipPath>
  </defs>
  <g id="Gruppe_671" data-name="Gruppe 671" transform="translate(0 0)" clip-path="url(#clip-path)">
    <path id="Pfad_4415" data-name="Pfad 4415" d="M10.355,0H3.673A3.811,3.811,0,0,0,0,3.928v7.144A3.811,3.811,0,0,0,3.673,15H5.851c0-.015,0-.031,0-.046q0-2.566,0-5.133c0-.047,0-.093,0-.138a.085.085,0,0,0-.059-.01H4.228l-.057,0-.008-.009V9.654c0-.014,0-.027,0-.041q0-1.04,0-2.08a.139.139,0,0,1,0-.021A.27.27,0,0,1,4.2,7.505l.141,0H5.847a.252.252,0,0,0,0-.036c0-.049,0-.1,0-.146q0-.647,0-1.295c0-.106,0-.211,0-.317A3.679,3.679,0,0,1,6.112,4.39,2.191,2.191,0,0,1,7.353,3.123,2.477,2.477,0,0,1,7.748,3a2.908,2.908,0,0,1,.487-.059c.129-.006.257,0,.386.005s.27.013.406.024.242.024.363.041c.136.019.272.042.408.063l.06.012a.205.205,0,0,1,.008.078c0,.129,0,.258,0,.387l0,1.312c0,.019,0,.038,0,.06a.245.245,0,0,1-.033,0l-.094,0c-.2,0-.4,0-.6,0-.08,0-.16,0-.239.008a1.2,1.2,0,0,0-.346.078.9.9,0,0,0-.538.6,1.405,1.405,0,0,0-.07.436q0,.7,0,1.4c0,.017,0,.034,0,.055a.316.316,0,0,0,.037,0h1.48l.282,0,.041,0a.3.3,0,0,1,0,.032c-.087.7-.188,1.4-.285,2.1,0,.005,0,.01-.009.019l-.06,0-.99,0L8,9.673a.081.081,0,0,0-.056.009.333.333,0,0,0,0,.081q0,1.9,0,3.8v1.383c0,.02,0,.038,0,.058h2.418a3.811,3.811,0,0,0,3.673-3.928V3.928A3.811,3.811,0,0,0,10.355,0" transform="translate(0 0)" fill="#fff"/>
  </g>
</svg>
