<svg id="Gruppe_678" data-name="Gruppe 678" xmlns="http://www.w3.org/2000/svg" xmlns:xlink="http://www.w3.org/1999/xlink" width="31.532" height="30" viewBox="0 0 31.532 30">
  <defs>
    <clipPath id="clip-path">
      <rect id="Rechteck_442" data-name="Rechteck 442" width="31.532" height="30" fill="#151515"/>
    </clipPath>
  </defs>
  <g id="Gruppe_677" data-name="Gruppe 677" transform="translate(0 0)" clip-path="url(#clip-path)">
    <path id="Pfad_4418" data-name="Pfad 4418" d="M2.649,22.144a5.483,5.483,0,0,0,5.608,5.335H23.276a5.482,5.482,0,0,0,5.607-5.335V7.856a5.482,5.482,0,0,0-5.607-5.335H8.257A5.483,5.483,0,0,0,2.649,7.856ZM31.532,7.856V22.144A8.073,8.073,0,0,1,23.276,30H8.257A8.073,8.073,0,0,1,0,22.144V7.856A8.073,8.073,0,0,1,8.257,0H23.276a8.073,8.073,0,0,1,8.256,7.856" transform="translate(0 0)" fill="#151515"/>
    <path id="Pfad_4419" data-name="Pfad 4419" d="M8.967,13.674a5.285,5.285,0,0,0,5.4,5.143,5.285,5.285,0,0,0,5.405-5.143,5.285,5.285,0,0,0-5.405-5.143,5.285,5.285,0,0,0-5.4,5.143m13.459,0a7.875,7.875,0,0,1-8.055,7.663,7.875,7.875,0,0,1-8.055-7.663,7.875,7.875,0,0,1,8.055-7.663,7.875,7.875,0,0,1,8.055,7.663" transform="translate(1.394 1.327)" fill="#151515"/>
    <path id="Pfad_4420" data-name="Pfad 4420" d="M6.393,4.386A1.71,1.71,0,0,0,4.642,6.051,1.71,1.71,0,0,0,6.393,7.717,1.71,1.71,0,0,0,8.143,6.051,1.71,1.71,0,0,0,6.393,4.386" transform="translate(1.025 0.968)" fill="#151515"/>
  </g>
</svg>
