<svg id="Gruppe_678" data-name="Gruppe 678" xmlns="http://www.w3.org/2000/svg" xmlns:xlink="http://www.w3.org/1999/xlink" width="14.027" height="15" viewBox="0 0 14.027 15">
  <defs>
    <clipPath id="clip-path">
      <rect id="Rechteck_442" data-name="Rechteck 442" width="14.027" height="15" fill="#fff"/>
    </clipPath>
  </defs>
  <g id="Gruppe_677" data-name="Gruppe 677" transform="translate(0 0)" clip-path="url(#clip-path)">
    <path id="Pfad_4418" data-name="Pfad 4418" d="M1.178,11.072A2.588,2.588,0,0,0,3.673,13.74h6.681a2.588,2.588,0,0,0,2.494-2.667V3.928A2.588,2.588,0,0,0,10.355,1.26H3.673A2.588,2.588,0,0,0,1.178,3.928ZM14.027,3.928v7.144A3.811,3.811,0,0,1,10.355,15H3.673A3.811,3.811,0,0,1,0,11.072V3.928A3.811,3.811,0,0,1,3.673,0h6.681a3.811,3.811,0,0,1,3.673,3.928" transform="translate(0 0)" fill="#fff"/>
    <path id="Pfad_4419" data-name="Pfad 4419" d="M7.5,9.842a2.5,2.5,0,0,0,2.4,2.572,2.5,2.5,0,0,0,2.4-2.572A2.5,2.5,0,0,0,9.9,7.271,2.5,2.5,0,0,0,7.5,9.842m5.987,0A3.718,3.718,0,0,1,9.9,13.674,3.718,3.718,0,0,1,6.317,9.842,3.718,3.718,0,0,1,9.9,6.011a3.718,3.718,0,0,1,3.583,3.831" transform="translate(-2.886 -2.342)" fill="#fff"/>
    <path id="Pfad_4420" data-name="Pfad 4420" d="M5.421,4.386a.807.807,0,0,0-.779.833.807.807,0,0,0,.779.833A.807.807,0,0,0,6.2,5.219a.807.807,0,0,0-.779-.833" transform="translate(-2.121 -1.709)" fill="#fff"/>
  </g>
</svg>
