<svg xmlns="http://www.w3.org/2000/svg" xmlns:xlink="http://www.w3.org/1999/xlink" viewBox="0 0 128 128">
    <defs>
        <style>.huebfaq-cls-1{fill:#24242a;}.huebfaq-cls-2{fill:gray;}.huebfaq-cls-2,.huebfaq-cls-3,.huebfaq-cls-4,.huebfaq-cls-5,.huebfaq-cls-6{fill-rule:evenodd;}.huebfaq-cls-3{fill:#a2eaff;}.huebfaq-cls-4{fill:#519db2;}.huebfaq-cls-5{fill:url(#huebfaq-GradientFill_1);}.huebfaq-cls-6{fill:url(#huebfaq-GradientFill_2);}</style>
        <linearGradient id="huebfaq-GradientFill_1" x1="57.23" y1="23.78" x2="57.23" y2="42.31" gradientUnits="userSpaceOnUse">
            <stop offset="0" stop-color="#b0deef"/>
            <stop offset="1" stop-color="#e6f4fb"/>
        </linearGradient>
        <linearGradient id="huebfaq-GradientFill_2" x1="57.23" y1="17.54" x2="57.23" y2="38.55" gradientUnits="userSpaceOnUse">
            <stop offset="0" stop-color="#4d9db3"/><stop offset="0.17" stop-color="#54a3b9"/>
            <stop offset="1" stop-color="#9ed6e6"/>
        </linearGradient>
    </defs>
    <g id="huebfaq-Ebene_2" data-name="huebfaq-Ebene 2">
        <g id="huebfaq-Ebene_1-2" data-name="huebfaq-Ebene 1">
            <rect class="huebfaq-cls-1" width="128" height="128" rx="10.45"/>
            <path class="huebfaq-cls-2" d="M111.41,39.9h-7.16V73.36a7.11,7.11,0,0,1-7.1,7.09H54.32L44.08,92.07a3.46,3.46,0,0,0,1.32.27H81.92l19,21.61V92.34h10.47a3.42,3.42,0,0,0,3.41-3.41V43.32A3.42,3.42,0,0,0,111.41,39.9Z"/>
            <path class="huebfaq-cls-3" d="M23.17,24.05V67.49H40v9.66l8.51-9.66H91.29V24.05ZM33,38.81v5.42h9V47.4H33v8.2H29.2v-20H42.41v3.17Zm25.31,13H49.67L48.43,55.6h-4l6.63-20h5.69l6.74,20H59.55l-1.26-3.83ZM57.41,49H50.57L54,38.58,57.41,49Zm27.85,3.94L83.7,55.21l-1.9-1.32c-1.24,1.27-3.6,1.89-7.08,1.89q-5.72,0-7.33-1.71c-1.09-1.15-1.62-3.74-1.62-7.79q0-7.05,1.54-8.92c1-1.25,3.48-1.87,7.36-1.87s6.26.59,7.32,1.76,1.59,3.88,1.59,8.11a29.9,29.9,0,0,1-.41,6.13l2.09,1.44ZM73.9,48.49l4.65,3.15a5.24,5.24,0,0,1-3.28.91c-2.74,0-4.37-.28-4.89-.83s-.78-2.3-.78-5.23q0-5.81.64-6.79c.43-.65,1.92-1,4.48-1,2.14,0,3.51.26,4.12.78s.91,1.72.91,3.58v4.48c0,.25,0,.73-.14,1.45l-4.13-2.8Z"/>
            <path class="huebfaq-cls-4" d="M17.31,14.05H97.15a4.14,4.14,0,0,1,4.13,4.13V73.36a4.14,4.14,0,0,1-4.13,4.13H53L30,103.62V77.49H17.31a4.14,4.14,0,0,1-4.13-4.13V18.18a4.14,4.14,0,0,1,4.13-4.13Zm2.9,7V70.45H37V85L49.8,70.45H94.25V21.09Z"/>
            <path class="huebfaq-cls-5" d="M91.29,39.57q-3.9.66-8,1.17A6.91,6.91,0,0,0,82,37.25q-1.59-1.76-7.32-1.76c-3.88,0-6.34.62-7.36,1.87-.69.83-1.14,2.42-1.37,4.78q-3.44.13-6.94.17l-2.25-6.67H51.06L48.9,42.16C43.42,42,38.09,41.54,33,41V38.81h9.43V35.64H29.2v4.84c-2-.27-4.05-.58-6-.91V23.78H91.29V39.57ZM79.6,41.16a2.86,2.86,0,0,0-.76-1.66c-.61-.52-2-.78-4.12-.78-2.56,0-4,.33-4.48,1A5.94,5.94,0,0,0,69.75,42c3.35-.19,6.64-.46,9.85-.8ZM55.19,42.3,54,38.58l-1.2,3.69Z"/>
            <path class="huebfaq-cls-6" d="M101,37.06c-2.18.54-4.44,1-6.76,1.49v-21H101V37.06Zm-80.8,1.49c-2.32-.45-4.58-.95-6.76-1.49V17.54h6.76Z"/>
        </g>
    </g>
</svg>
