<?xml version="1.0" encoding="UTF-8"?><svg id="Ebene_1" xmlns="http://www.w3.org/2000/svg" viewBox="0 0 55.18 51.02"><defs><style>.cls-1{fill:#1d1d1b;}</style></defs><path class="cls-1" d="m54.65,12.89c-1.33-5.99-6.19-11.13-11.81-12.51-5.26-1.28-10.67.67-15.25,5.52C23,1.06,17.59-.9,12.33.39,6.72,1.77,1.86,6.91.53,12.89c-2.87,12.92,5.99,25.6,26.34,37.7l.72.43.72-.42c20.35-12.1,29.21-24.79,26.34-37.7Zm-28.13-3.98l1.07,1.28,1.07-1.28c4.1-4.87,8.9-6.94,13.51-5.8,4.62,1.13,8.62,5.4,9.73,10.39,2.55,11.46-5.64,22.98-24.32,34.25C8.91,36.48.72,24.96,3.27,13.5c1.11-4.98,5.11-9.26,9.73-10.39.82-.2,1.66-.3,2.49-.3v-.22h0s0,0,0,0v.22c3.85,0,7.66,2.11,11.02,6.11Z"/></svg>