<svg xmlns="http://www.w3.org/2000/svg" xmlns:xlink="http://www.w3.org/1999/xlink" width="157.515" height="21.16" viewBox="0 0 157.515 21.16">
  <defs>
    <clipPath id="clip-path">
      <path id="Pfad_4422" data-name="Pfad 4422" d="M0,10.5H157.515V-10.662H0Z" transform="translate(0 10.662)" fill="#151515"/>
    </clipPath>
  </defs>
  <g id="Gruppe_923" data-name="Gruppe 923" transform="translate(0.001 0.001)">
    <g id="Gruppe_702" data-name="Gruppe 702" transform="translate(-0.001 -0.001)" clip-path="url(#clip-path)">
      <g id="Gruppe_701" data-name="Gruppe 701" transform="translate(0.001 0.001)">
        <path id="Pfad_4421" data-name="Pfad 4421" d="M77.669,4.532c-1.219-2.139-4.576-3-6.347-1.014-1.893,2.125-1.363,7.736,1.419,7.347,1.929-.268.728-2.87.032-3.183a4.111,4.111,0,0,1-1.04-.609,1.121,1.121,0,0,1-.125-.149,1.322,1.322,0,0,1,.105-.161,2.7,2.7,0,0,1,.623-.57,3.833,3.833,0,0,1,3.388-.214A3.331,3.331,0,0,1,77.2,7.1a1.336,1.336,0,0,1,.22,1.558,6.374,6.374,0,0,1-3.08,3.269c-2.618,1.405-5.858,1.594-8.764,1.542a36.485,36.485,0,0,1-9.3-1.381c-3.136-.893-6.089-2.368-9.157-3.463-.135-.048-.27-.093-.4-.139Q47.8,7.7,48.9,6.921q1.747.512,3.485,1.052c3.255,1.014,7.137,2.582,10.373.683,2.707-1.588,3.173-5.34,2.048-8.113-.982-2.419-3.588-2.653-5.839-2.227a22.2,22.2,0,0,0-7.706,3.536c-.8.518-1.594,1.056-2.378,1.6Q43.616,1.893,38.28.583A166.015,166.015,0,0,0-.13-4.6,166,166,0,0,0-38.537.583q-5.337,1.3-10.608,2.874c-.782-.548-1.572-1.086-2.376-1.6a22.212,22.212,0,0,0-7.706-3.536c-2.252-.427-4.856-.193-5.839,2.227-1.125,2.772-.659,6.525,2.046,8.113,3.237,1.9,7.119.331,10.375-.683q1.736-.542,3.483-1.052,1.1.774,2.183,1.568c-.135.046-.27.091-.4.139-3.07,1.1-6.023,2.57-9.159,3.463a36.47,36.47,0,0,1-9.294,1.381c-2.907.052-6.146-.137-8.764-1.542a6.366,6.366,0,0,1-3.08-3.269,1.33,1.33,0,0,1,.22-1.558,3.336,3.336,0,0,1,1.473-1.125,3.837,3.837,0,0,1,3.39.214,2.648,2.648,0,0,1,.621.57,1.33,1.33,0,0,1,.107.161,1.3,1.3,0,0,1-.125.149,4.181,4.181,0,0,1-1.04.609c-.7.314-1.9,2.915.032,3.183,2.78.389,3.312-5.221,1.419-7.347-1.772-1.987-5.13-1.125-6.347,1.014a7.815,7.815,0,0,0,.812,8.718c2.183,2.425,5.664,3.046,8.748,3.225a35.169,35.169,0,0,0,10.016-.691C-54.989,15-51.9,13.5-48.678,12.3c1.568-.585,3.161-1.131,4.779-1.592q.9.637,1.812,1.254a27.847,27.847,0,0,0,7.027,3.687c1.816.57,4.229.98,5.993.022,1.538-.837,1.856-2.919,1.723-4.517a4.652,4.652,0,0,0-2.485-3.777c-2.27-1.3-5.057-1.4-7.593-1.175a33.381,33.381,0,0,0-6.21,1.209q-1.033-.735-2.056-1.479A177.336,177.336,0,0,1-5.836-.511Q-2.981-.624-.13-.634q2.852.012,5.706.123A177.318,177.318,0,0,1,45.428,5.937q-1.024.744-2.054,1.479a33.4,33.4,0,0,0-6.212-1.209c-2.534-.222-5.323-.123-7.591,1.175a4.654,4.654,0,0,0-2.487,3.777c-.133,1.6.185,3.679,1.723,4.517,1.764.959,4.18.548,5.993-.022a27.846,27.846,0,0,0,7.027-3.687c.611-.411,1.213-.83,1.814-1.254,1.615.46,3.211,1.006,4.777,1.592,3.225,1.2,6.313,2.693,9.673,3.481a35.179,35.179,0,0,0,10.016.691c3.086-.179,6.567-.8,8.748-3.225a7.811,7.811,0,0,0,.814-8.718M56.883,2.25c1.925-.707,4.842-1.5,6.678-.163a1.482,1.482,0,0,1,.589.828A2.04,2.04,0,0,1,63.5,4.332a5.831,5.831,0,0,1-3.991,1.675A15.384,15.384,0,0,1,54.212,5.1q-.9-.277-1.8-.558A23.973,23.973,0,0,1,56.883,2.25M-54.469,5.1a15.392,15.392,0,0,1-5.295.911,5.827,5.827,0,0,1-3.991-1.675,2.035,2.035,0,0,1-.655-1.417,1.5,1.5,0,0,1,.589-.828c1.838-1.342,4.753-.544,6.68.163a24.1,24.1,0,0,1,4.467,2.288c-.6.187-1.2.373-1.8.558m26.2,7.581s-.006-.02-.006-.054c.115.171-.038.087.006.054m-9.548-3.169c2.638-.25,5.841-.226,8.1,1.389a4.267,4.267,0,0,1,1.086,1.219,1.288,1.288,0,0,1-.228.234c-1.766,1.191-4.644.5-6.474-.147a24.12,24.12,0,0,1-4.751-2.379c.75-.131,1.5-.244,2.264-.316m65.842,3.116c0,.034,0,.058-.008.054.046.034-.107.117.008-.054m7.053-.421c-1.83.645-4.707,1.338-6.472.147a1.358,1.358,0,0,1-.23-.234A4.305,4.305,0,0,1,29.46,10.9c2.262-1.615,5.466-1.639,8.1-1.389.76.071,1.514.185,2.266.316A24.081,24.081,0,0,1,35.074,12.2" transform="translate(78.886 4.603)" fill="#151515"/>
      </g>
    </g>
  </g>
</svg>
