<?xml version="1.0" encoding="UTF-8"?><svg id="Ebene_4" xmlns="http://www.w3.org/2000/svg" viewBox="0 0 51.04 51.02"><path d="m36.19,39.1c-4.47,3.66-9.44,5.27-14.82,5.07-9.76-.35-18.05-6.71-20.62-16.39C-2.34,16.18,4.37,4.2,15.97.87c12.6-3.62,25.3,4.46,27.74,16.7,1.28,6.44-.08,12.27-3.87,17.56-.53.73-.54,1.1.15,1.77,3.32,3.22,6.56,6.52,9.84,9.78,1.4,1.4,1.59,2.55.56,3.6-1.09,1.1-2.23.98-3.63-.41-3.12-3.1-6.22-6.21-9.32-9.33-.41-.42-.77-.89-1.23-1.44ZM2.6,22.08c-.45,10.35,8.51,19.75,19.48,19.65,11.17-.1,19.61-8.58,19.66-19.54.05-11.38-8.89-19.82-19.71-19.77-11.27.05-19.77,9.3-19.43,19.66Z"/></svg>