<svg id="Gruppe_676" data-name="Gruppe 676" xmlns="http://www.w3.org/2000/svg" xmlns:xlink="http://www.w3.org/1999/xlink" width="14.027" height="15" viewBox="0 0 14.027 15">
  <defs>
    <clipPath id="clip-path">
      <rect id="Rechteck_441" data-name="Rechteck 441" width="14.027" height="15" fill="#fff"/>
    </clipPath>
  </defs>
  <g id="Gruppe_675" data-name="Gruppe 675" transform="translate(0 0)" clip-path="url(#clip-path)">
    <path id="Pfad_4417" data-name="Pfad 4417" d="M10.355,0H3.673A3.811,3.811,0,0,0,0,3.928v7.144A3.811,3.811,0,0,0,3.673,15h6.681a3.811,3.811,0,0,0,3.673-3.928V3.928A3.811,3.811,0,0,0,10.355,0m.629,6.53a2.036,2.036,0,0,1-1.24-.236,2.559,2.559,0,0,1-.967-.941c0,.038,0,.06,0,.081V9.441a3.358,3.358,0,0,1-.238,1.274A2.894,2.894,0,0,1,7.268,12.2a2.384,2.384,0,0,1-1.357.315,2.533,2.533,0,0,1-1.747-.864,2.984,2.984,0,0,1-.717-1.364,3.269,3.269,0,0,1,.489-2.71A2.606,2.606,0,0,1,5.516,6.479,2.19,2.19,0,0,1,6.13,6.42c.025,0,.049,0,.074.007a.083.083,0,0,1,.02.008V7.923a.251.251,0,0,1-.036,0,1.232,1.232,0,0,0-1.08.414A1.538,1.538,0,0,0,4.7,9.2a1.641,1.641,0,0,0,.288,1.249,1.267,1.267,0,0,0,1.083.575A1.4,1.4,0,0,0,7.3,10.262a1.472,1.472,0,0,0,.2-.74c0-.416,0-.833,0-1.25q0-1.142,0-2.284,0-.931,0-1.861,0-.785,0-1.569c0-.023,0-.045,0-.073H8.791A2.8,2.8,0,0,0,9.5,4.119a2.253,2.253,0,0,0,1.476.751c.012.054.017,1.531.006,1.659" transform="translate(0 0)" fill="#fff"/>
  </g>
</svg>
